<svg width="427" height="495" viewBox="0 0 427 495" fill="none" xmlns="http://www.w3.org/2000/svg">
<g clip-path="url(#clip0_42_780)">
<path d="M427 188.932C427 190.338 426.983 191.742 426.95 193.144C426.936 194.06 426.908 194.976 426.872 195.892C426.865 196.155 426.858 196.411 426.844 196.674C426.823 197.178 426.801 197.675 426.78 198.165C426.624 201.439 426.383 204.69 426.057 207.917C426.043 208.073 426.028 208.23 426.014 208.379C425.979 208.698 425.95 209.018 425.908 209.338C425.809 210.297 425.702 211.255 425.582 212.2C425.504 212.839 425.426 213.471 425.34 214.111C425.298 214.416 425.255 214.722 425.22 215.02C425.17 215.354 425.128 215.68 425.078 216.007C425.057 216.149 425.036 216.291 425.014 216.44C424.943 216.923 424.872 217.413 424.794 217.896C424.702 218.529 424.603 219.154 424.497 219.786C424.397 220.411 424.291 221.036 424.177 221.661C424.071 222.286 423.958 222.911 423.844 223.536C423.731 224.168 423.61 224.793 423.49 225.418C422.88 228.515 422.199 231.586 421.447 234.63C421.149 235.817 420.844 237 420.532 238.182C420.015 240.099 419.469 242.008 418.894 243.906C418.731 244.432 418.568 244.958 418.405 245.476C418.22 246.073 418.029 246.669 417.837 247.259C417.646 247.856 417.454 248.445 417.256 249.035C417.057 249.624 416.859 250.214 416.653 250.803C416.454 251.386 416.249 251.975 416.036 252.558C415.83 253.147 415.618 253.73 415.405 254.312C415.185 254.894 414.972 255.477 414.752 256.052C414.313 257.217 413.861 258.37 413.398 259.511C413.171 260.086 412.937 260.662 412.696 261.23C411.753 263.517 410.765 265.778 409.732 268.013C409.505 268.51 409.278 269.007 409.044 269.497C408.888 269.824 408.739 270.144 408.583 270.471C408.32 271.01 408.065 271.543 407.803 272.076C407.54 272.616 407.271 273.162 406.994 273.709C406.448 274.789 405.893 275.866 405.328 276.941C404.767 278.014 404.193 279.086 403.604 280.144C403.016 281.203 402.42 282.261 401.817 283.305C401.512 283.831 401.207 284.356 400.902 284.875C399.675 286.956 398.408 289.013 397.101 291.047C395.803 293.071 394.463 295.072 393.08 297.049C392.392 298.036 391.69 299.023 390.981 299.996C390.697 300.387 390.414 300.771 390.13 301.154C389.782 301.637 389.421 302.113 389.059 302.589C373.69 323.063 354.321 340.191 332.132 352.93C309.943 365.668 285.397 373.751 259.99 376.687C234.583 379.622 208.844 377.349 184.342 370.005C159.84 362.661 137.086 350.4 117.466 333.969C115.395 332.236 113.362 330.46 111.367 328.642C98.564 316.965 87.4185 303.587 78.2411 288.881C77.0993 287.041 75.9789 285.18 74.9009 283.305C58.3529 254.618 49.6655 222.062 49.718 188.932C49.718 84.5859 134.174 -2.63557e-05 238.359 -2.63557e-05C269.708 -0.0190559 300.567 7.79369 328.142 22.7308C355.716 37.6678 379.135 59.2575 396.278 85.5448C396.59 86.0207 396.902 86.5037 397.215 86.9867C414.259 113.554 424.34 143.997 426.525 175.5C426.844 179.933 427.002 184.41 427 188.932Z" fill="#F2F2F2" fill-opacity="0.75"/>
<path d="M397.214 86.9866H135.918C135.73 86.9821 135.552 86.9041 135.421 86.7694C135.289 86.6347 135.216 86.4539 135.216 86.2657C135.216 86.0775 135.289 85.8967 135.421 85.762C135.552 85.6273 135.73 85.5494 135.918 85.5448H396.278C396.59 86.0207 396.902 86.5037 397.214 86.9866Z" fill="#CACACA"/>
<path d="M151.771 76.8931C156.051 76.8931 159.519 73.3415 159.519 68.9603C159.519 64.5791 156.051 61.0274 151.771 61.0274C147.492 61.0274 144.023 64.5791 144.023 68.9603C144.023 73.3415 147.492 76.8931 151.771 76.8931Z" fill="#3F3D56"/>
<path d="M178.537 76.8931C182.816 76.8931 186.285 73.3415 186.285 68.9603C186.285 64.5791 182.816 61.0274 178.537 61.0274C174.258 61.0274 170.789 64.5791 170.789 68.9603C170.789 73.3415 174.258 76.8931 178.537 76.8931Z" fill="#3F3D56"/>
<path d="M205.303 76.8931C209.582 76.8931 213.051 73.3415 213.051 68.9603C213.051 64.5791 209.582 61.0274 205.303 61.0274C201.024 61.0274 197.555 64.5791 197.555 68.9603C197.555 73.3415 201.024 76.8931 205.303 76.8931Z" fill="#3F3D56"/>
<path d="M426.525 175.5C419.71 178.604 413.604 183.619 408.271 190.516C402.108 198.492 395.506 204.11 388.761 207.917C388.442 208.095 388.13 208.265 387.811 208.436C381.765 211.699 375.135 213.734 368.302 214.423C366.237 214.632 364.164 214.731 362.089 214.722C361.224 214.714 360.359 214.693 359.501 214.651C357.465 214.551 355.451 214.352 353.473 214.068C342.112 212.449 331.836 208.073 324.226 203.961C313.8 198.202 302.483 194.235 290.746 192.227C288.647 191.879 286.552 191.607 284.463 191.411C283.597 191.325 282.739 191.261 281.881 191.205C279.775 191.063 277.671 190.996 275.57 191.006C274.492 191.013 273.421 191.034 272.343 191.077C254.23 191.787 230.608 196.958 209.425 215.02C209.141 215.261 208.864 215.503 208.581 215.744C208.318 215.972 208.056 216.206 207.794 216.44C204.441 219.425 201.281 222.621 198.333 226.008C194.954 229.887 191.827 233.979 188.972 238.26C185.582 243.272 181.622 247.872 177.171 251.968C170.589 258.052 165.318 265.419 161.681 273.617C158.044 281.815 156.119 290.671 156.024 299.641V299.997C156.017 300.38 156.017 300.771 156.017 301.154H390.137C390.421 300.771 390.704 300.387 390.981 299.997C391.69 299.023 392.392 298.036 393.08 297.049C394.463 295.074 395.803 293.074 397.101 291.047C398.413 289.016 399.68 286.958 400.902 284.875C401.207 284.356 401.512 283.831 401.817 283.305C402.42 282.261 403.016 281.203 403.604 280.144C404.193 279.086 404.767 278.014 405.328 276.941C405.895 275.869 406.451 274.791 406.994 273.709C407.271 273.163 407.54 272.616 407.803 272.076C408.065 271.543 408.32 271.01 408.583 270.471C408.739 270.144 408.888 269.824 409.044 269.498C409.278 269.007 409.505 268.51 409.732 268.013C410.767 265.776 411.755 263.515 412.696 261.23C412.937 260.662 413.171 260.086 413.398 259.511C413.859 258.368 414.311 257.215 414.753 256.052C414.972 255.477 415.185 254.894 415.405 254.312C415.618 253.73 415.831 253.147 416.036 252.558C416.249 251.975 416.455 251.386 416.653 250.803C416.859 250.214 417.057 249.624 417.256 249.035C417.455 248.445 417.646 247.856 417.838 247.259C418.029 246.669 418.22 246.073 418.405 245.476C418.568 244.958 418.731 244.432 418.894 243.907C419.469 242.01 420.015 240.102 420.532 238.182C420.844 237.003 421.149 235.819 421.447 234.63C422.199 231.59 422.88 228.52 423.49 225.418C423.61 224.793 423.731 224.168 423.844 223.536C423.958 222.911 424.071 222.286 424.178 221.661C424.291 221.036 424.397 220.411 424.497 219.786C424.603 219.154 424.702 218.529 424.795 217.897C424.873 217.414 424.943 216.923 425.014 216.44C425.036 216.291 425.057 216.149 425.078 216.007C425.128 215.673 425.17 215.347 425.213 215.02C425.255 214.714 425.298 214.409 425.341 214.111C425.426 213.472 425.504 212.839 425.582 212.2C425.702 211.255 425.809 210.297 425.908 209.338H425.915C425.943 209.018 425.979 208.699 426.014 208.379C426.029 208.23 426.043 208.073 426.057 207.917C426.383 204.693 426.624 201.442 426.78 198.165C426.802 197.675 426.823 197.178 426.844 196.674C426.858 196.411 426.865 196.155 426.872 195.892C426.908 194.976 426.936 194.06 426.95 193.144C426.986 191.744 427.002 190.34 427 188.932C427 184.414 426.842 179.937 426.525 175.5Z" fill="#0C74F3"/>
<path d="M207.003 223.135H204.416V299.09H207.003V223.135Z" fill="#3F3D56"/>
<path d="M284.466 187.661H281.878V299.09H284.466V187.661Z" fill="#3F3D56"/>
<path d="M362.088 210.983H359.5V299.09H362.088V210.983Z" fill="#3F3D56"/>
<path d="M283.332 197.374C287.703 197.374 291.247 193.825 291.247 189.447C291.247 185.069 287.703 181.52 283.332 181.52C278.96 181.52 275.417 185.069 275.417 189.447C275.417 193.825 278.96 197.374 283.332 197.374Z" fill="#3F3D56"/>
<path d="M360.954 219.401C365.325 219.401 368.869 215.852 368.869 211.474C368.869 207.096 365.325 203.546 360.954 203.546C356.582 203.546 353.039 207.096 353.039 211.474C353.039 215.852 356.582 219.401 360.954 219.401Z" fill="#3F3D56"/>
<path d="M204.292 224.67C208.663 224.67 212.207 221.121 212.207 216.743C212.207 212.364 208.663 208.815 204.292 208.815C199.92 208.815 196.376 212.364 196.376 216.743C196.376 221.121 199.92 224.67 204.292 224.67Z" fill="#3F3D56"/>
<path d="M390.981 299.996C390.697 300.387 390.414 300.771 390.13 301.154C389.782 301.637 389.421 302.113 389.059 302.589H155.761V299.996H390.981Z" fill="#3F3D56"/>
<path d="M90.1469 486.623H97.6436L101.21 457.661L90.1455 457.662L90.1469 486.623Z" fill="#FFB8B8"/>
<path d="M109.651 486.932C108.78 486.052 107.744 485.354 106.601 484.88C105.458 484.411 104.234 484.17 102.998 484.169L98.5803 480.817L98.3463 480.909L90.3468 484.169H88.2334V493.9H112.409V493.595C112.413 492.356 112.171 491.13 111.697 489.986C111.224 488.843 110.528 487.804 109.651 486.932Z" fill="#2F2E41"/>
<path d="M124.977 486.623H132.474L136.04 457.661L124.976 457.662L124.977 486.623Z" fill="#FFB8B8"/>
<path d="M144.485 486.932C143.614 486.05 142.574 485.353 141.429 484.88C140.286 484.409 139.062 484.168 137.826 484.169L133.415 480.817L133.174 480.916L125.174 484.169H123.061L123.068 493.9H147.237V493.595C147.24 492.357 146.999 491.131 146.526 489.988C146.054 488.844 145.36 487.806 144.485 486.932Z" fill="#2F2E41"/>
<path d="M130.969 328.131L72.0659 329.67L73.0903 358.398C73.0903 358.398 72.0659 366.093 74.1147 368.145C76.1635 370.197 77.1879 370.197 76.1635 373.788C75.1391 377.378 80.5515 383.244 79.8942 383.902C79.2368 384.56 77.7001 388.151 77.7001 388.151L82.8222 417.392C82.8222 417.392 86.4076 468.178 87.432 469.204C88.4564 470.23 89.4808 469.204 88.4564 471.769C87.432 474.334 86.4076 473.308 87.432 474.334C88.3394 475.314 89.1943 476.341 89.993 477.412H102.377C102.377 477.412 103.31 472.282 103.31 471.769C103.31 471.256 104.335 468.178 104.335 467.665C104.335 467.152 103.429 466.245 103.429 466.245C103.116 465.202 102.905 464.132 102.798 463.048C102.798 462.022 99.7248 422.522 99.7248 422.522L105.871 371.223L120.725 421.496C120.725 421.496 120.725 465.613 121.75 466.639C122.774 467.665 122.774 467.152 122.262 469.204C121.75 471.256 119.701 470.743 121.237 472.282C122.774 473.821 123.286 471.256 122.774 473.821L122.262 476.386L137.628 476.606C137.628 476.606 139.677 472.282 138.652 470.743C137.628 469.204 137.689 469.624 138.939 467.105C140.189 464.587 140.701 464.074 140.189 463.561C139.677 463.048 139.677 460.319 139.677 460.319L137.116 411.236C137.116 411.236 136.603 359.424 136.603 357.885C136.565 357.093 136.71 356.303 137.029 355.577V353.488L135.067 346.086L130.969 328.131Z" fill="#2F2E41"/>
<path d="M197.629 216.247C197.346 217.035 196.894 217.751 196.305 218.345C195.716 218.939 195.003 219.396 194.218 219.685C193.433 219.974 192.595 220.086 191.762 220.015C190.928 219.944 190.121 219.691 189.396 219.273L163.828 240.727L162.438 230.241L187.446 211.067C188.227 209.894 189.411 209.048 190.773 208.691C192.134 208.333 193.58 208.488 194.835 209.127C196.09 209.765 197.068 210.843 197.583 212.155C198.098 213.467 198.115 214.923 197.629 216.247H197.629Z" fill="#FFB8B8"/>
<path d="M84.8861 225.101C93.6554 225.101 100.764 217.981 100.764 209.198C100.764 200.415 93.6554 193.295 84.8861 193.295C76.1168 193.295 69.0078 200.415 69.0078 209.198C69.0078 217.981 76.1168 225.101 84.8861 225.101Z" fill="#FFB8B8"/>
<path d="M97.7586 193.372C96.2804 189.843 89.9453 187.748 79.9207 188.063C69.8962 188.379 68.1407 200.352 68.1407 200.352C62.6192 205.506 71.5335 221.599 73.0801 219.38C74.6267 217.161 77.2233 219.258 77.2233 219.258L74.7488 205.318C77.3619 206.325 80.1724 207.001 82.6303 205.828L78.5579 203.647L88.6836 204.909L84.5077 201.691C84.6089 201.658 84.7102 201.623 84.8114 201.589C86.4861 202.312 88.2796 202.72 90.1019 202.792C92.2308 202.776 94.4933 201.777 95.3854 199.841C95.6226 199.309 95.7511 198.735 95.7633 198.153C98.6987 199.108 100.24 202.552 100.24 202.552C99.6827 199.425 98.8524 196.353 97.7586 193.372Z" fill="#2F2E41"/>
<path d="M97.5959 225.812C94.05 225.812 91.7665 226.302 86.2491 227.233C76.0653 228.952 82.1642 238.643 82.1642 238.643C82.1642 238.643 82.6252 238.408 81.3771 238.643C80.1289 238.877 75.8738 242.564 75.8738 242.564L68.2644 249.332C56.797 258.346 59.3642 272.409 59.3642 272.409L76.0866 289.264L68.7608 323.08C68.7608 323.08 71.874 328.101 70.2642 330.353C68.6544 332.604 84.4477 331.958 84.4477 331.958C95.3478 336.823 133.75 332.711 133.75 332.711C133.218 331.319 128.076 320.53 128.076 320.53C130.31 316.666 128.183 311.083 128.183 311.083C128.183 311.083 125.963 284.675 124.545 281.025C123.126 277.374 128.176 257.593 131.495 257.806C134.813 258.019 156.252 247.067 156.252 247.067C156.252 247.067 155.713 246.207 162.79 243.309C166.856 241.71 170.583 239.355 173.776 236.37L176.683 230.553C175.286 231.093 170.57 222.186 170.57 222.186L168.514 222.971L167.322 222.626C167.322 222.626 158.025 225.276 156.124 227.208C154.224 229.139 153.585 228.6 151.869 229.033C150.153 229.466 149.94 230.674 149.401 230.539C148.862 230.404 147.905 232.037 147.153 231.824C146.401 231.611 144.792 232.471 143.721 232.684C142.65 232.897 135.04 236.121 135.04 236.121C130.331 233.735 117.566 234.701 117.566 234.701C117.566 234.701 113.389 232.236 112.205 234.701C111.886 235.401 111.375 235.996 110.73 236.415C110.086 236.834 109.335 237.06 108.567 237.066L103.475 234.886C103.179 235.967 97.625 224.691 97.5959 225.812Z" fill="#3F3D56"/>
<path d="M40.6581 455.276L39.9505 439.341C32.5743 435.393 24.3471 433.307 15.9834 433.265C27.4944 442.691 26.0558 460.86 33.86 473.535C36.3243 477.47 39.6411 480.798 43.5645 483.275C47.4879 485.751 51.9174 487.311 56.5248 487.84L66.1576 493.747C67.4793 486.367 67.1879 478.787 65.3034 471.531C63.4188 464.275 59.986 457.514 55.2413 451.714C52.5474 448.487 49.4584 445.612 46.0472 443.158C43.7402 449.251 40.6581 455.276 40.6581 455.276Z" fill="#F2F2F2"/>
<path d="M3.73358e-06 494.155C-0.000326797 494.266 0.021292 494.376 0.063589 494.479C0.105886 494.581 0.16803 494.675 0.246467 494.753C0.324903 494.832 0.418066 494.894 0.520611 494.936C0.623155 494.979 0.733047 495 0.843969 495H201.747C201.97 495 202.185 494.911 202.343 494.752C202.502 494.594 202.591 494.379 202.591 494.155C202.591 493.931 202.502 493.716 202.343 493.557C202.185 493.399 201.97 493.31 201.747 493.31H0.843969C0.733048 493.309 0.623153 493.331 0.520611 493.373C0.418068 493.416 0.324902 493.478 0.246467 493.556C0.168031 493.635 0.105887 493.728 0.063589 493.831C0.0212906 493.934 -0.000323032 494.044 3.73358e-06 494.155Z" fill="#3F3D56"/>
<path d="M209.558 215.02H205.303V216.44H209.558V215.02Z" fill="#3F3D56"/>
<path d="M218.147 215.02V216.44H226.743V215.02H218.147ZM235.338 215.02V216.44H243.926V215.02H235.338ZM252.521 215.02V216.44H261.116V215.02H252.521ZM269.705 215.02V216.44H278.3V215.02H269.705ZM286.895 215.02V216.44H295.483V215.02H286.895ZM304.078 215.02V216.44H312.674V215.02H304.078ZM321.262 215.02V216.44H329.857V215.02H321.262ZM338.452 215.02V216.44H347.04V215.02H338.452ZM355.636 215.02V216.44H364.231V215.02H355.636ZM372.819 215.02V216.44H381.414V215.02H372.819ZM390.002 215.02V216.44H398.597V215.02H390.002ZM407.193 215.02V216.44H415.781V215.02H407.193ZM424.376 215.02V216.44H425.014C425.036 216.291 425.057 216.149 425.078 216.007C425.128 215.68 425.17 215.354 425.22 215.02H424.376Z" fill="#3F3D56"/>
<path d="M283.312 186.609H279.057V188.029H283.312V186.609Z" fill="#3F3D56"/>
<path d="M291.902 186.609V188.03H300.497V186.609H291.902ZM309.092 186.609V188.03H317.68V186.609H309.092ZM326.276 186.609V188.03H334.871V186.609H326.276ZM343.459 186.609V188.03H352.054V186.609H343.459ZM360.649 186.609V188.03H369.238V186.609H360.649ZM377.833 186.609V188.03H386.428V186.609H377.833ZM395.016 186.609V188.03H403.611V186.609H395.016ZM412.207 186.609V188.03H420.795V186.609H412.207Z" fill="#3F3D56"/>
<path d="M362.03 207.917H357.775V209.337H362.03V207.917Z" fill="#3F3D56"/>
<path d="M370.621 207.917V209.338H379.216V207.917H370.621ZM387.811 207.917V209.338H396.399V207.917H387.811ZM404.994 207.917V209.338H413.59V207.917H404.994ZM422.178 207.917V209.338H425.915C425.943 209.018 425.979 208.698 426.014 208.379C426.029 208.23 426.043 208.073 426.057 207.917H422.178Z" fill="#3F3D56"/>
<path d="M108.58 356.064V310.316C108.581 309.39 108.948 308.503 109.602 307.848C110.256 307.193 111.142 306.825 112.067 306.824H146.563C147.488 306.825 148.374 307.193 149.028 307.848C149.682 308.503 150.049 309.39 150.051 310.316V356.064C150.049 356.99 149.682 357.878 149.028 358.533C148.374 359.187 147.488 359.556 146.563 359.557H112.067C111.142 359.556 110.256 359.187 109.602 358.533C108.948 357.878 108.581 356.99 108.58 356.064Z" fill="#E6E6E6"/>
<path d="M111.226 342.247V312.836C111.227 311.968 111.571 311.137 112.183 310.524C112.795 309.911 113.626 309.566 114.491 309.565H144.138C145.004 309.566 145.834 309.911 146.447 310.524C147.059 311.137 147.403 311.968 147.404 312.836V353.545C147.403 354.412 147.059 355.244 146.447 355.857C145.834 356.47 145.004 356.815 144.138 356.816H125.773C121.916 356.812 118.218 355.275 115.491 352.544C112.764 349.813 111.23 346.109 111.226 342.247Z" fill="white"/>
<path d="M116.026 321.042C116.027 320.194 116.363 319.382 116.962 318.783C117.56 318.184 118.371 317.847 119.217 317.846H139.783C140.63 317.846 141.441 318.182 142.04 318.782C142.638 319.381 142.975 320.194 142.975 321.042C142.975 321.889 142.638 322.702 142.04 323.302C141.441 323.901 140.63 324.238 139.783 324.238H119.217C118.371 324.237 117.56 323.9 116.962 323.301C116.363 322.702 116.027 321.889 116.026 321.042Z" fill="#E6E6E6"/>
<path d="M116.026 330.986C116.027 330.138 116.363 329.326 116.962 328.726C117.56 328.127 118.371 327.79 119.217 327.789H139.783C140.63 327.789 141.441 328.126 142.04 328.725C142.638 329.325 142.975 330.138 142.975 330.986C142.975 331.833 142.638 332.646 142.04 333.246C141.441 333.845 140.63 334.182 139.783 334.182H119.217C118.371 334.181 117.56 333.844 116.962 333.245C116.363 332.645 116.027 331.833 116.026 330.986Z" fill="#E6E6E6"/>
<path d="M116.026 340.929C116.027 340.082 116.363 339.269 116.962 338.67C117.56 338.071 118.371 337.734 119.217 337.733H139.783C140.63 337.733 141.441 338.07 142.04 338.669C142.638 339.269 142.975 340.082 142.975 340.929C142.975 341.777 142.638 342.59 142.04 343.189C141.441 343.789 140.63 344.126 139.783 344.126H119.217C118.371 344.125 117.56 343.788 116.962 343.188C116.363 342.589 116.027 341.777 116.026 340.929Z" fill="#E6E6E6"/>
<path d="M109.394 340.083C108.619 340.098 107.849 339.941 107.14 339.626C106.432 339.31 105.8 338.843 105.291 338.256C104.782 337.67 104.408 336.979 104.194 336.232C103.981 335.485 103.933 334.7 104.056 333.933L74.6035 317.782L83.2234 313.113L110.516 329.53C111.79 329.821 112.913 330.569 113.672 331.634C114.431 332.698 114.774 334.005 114.636 335.306C114.497 336.607 113.887 337.811 112.921 338.692C111.955 339.572 110.701 340.067 109.394 340.083Z" fill="#FFB8B8"/>
<path d="M92.2687 328.144L81.8247 326.286L78.0852 323.173L75.5701 321.89L66.902 315.796L66.8762 315.719L53.103 274.943C52.4706 271.594 53.1401 268.13 54.9747 265.26C56.8092 262.39 59.6698 260.331 62.9709 259.504C64.7963 259.049 66.6972 258.987 68.5484 259.321C70.3997 259.655 72.1593 260.378 73.7115 261.442C75.2637 262.506 76.5732 263.887 77.5539 265.495C78.5346 267.103 79.1643 268.9 79.4014 270.769L83.8339 305.716L91.1814 313.316L94.3962 313.939L95.1362 317.406L97.9421 321.752L92.2687 328.144Z" fill="#3F3D56"/>
</g>
<defs>
<clipPath id="clip0_42_780">
<rect width="427" height="495" fill="white"/>
</clipPath>
</defs>
</svg>
