<svg width="527" height="370" viewBox="0 0 527 370" fill="none" xmlns="http://www.w3.org/2000/svg">
<g clip-path="url(#clip0_42_818)">
<path d="M410.221 37.0439H443.829C447.06 37.0469 450.158 38.3263 452.443 40.6014C454.727 42.8766 456.012 45.9615 456.015 49.179V85.4629C456.445 85.4374 456.874 85.3991 457.298 85.348C465.26 84.5138 472.83 81.4812 479.153 76.5922C485.477 71.7032 490.304 65.1522 493.089 57.6777C495.874 50.2033 496.507 42.1026 494.916 34.2891C493.325 26.4757 489.574 19.2601 484.086 13.4559C478.598 7.65175 471.59 3.48985 463.853 1.43944C456.117 -0.61097 447.959 -0.468342 440.299 1.85125C432.64 4.17084 425.783 8.57515 420.503 14.5676C415.222 20.56 411.728 27.9023 410.414 35.7666C410.343 36.1881 410.279 36.616 410.221 37.0439Z" fill="#F2F2F2" fill-opacity="0.75"/>
<path d="M13.4686 35.7666H443.829C447.4 35.7705 450.824 37.1848 453.349 39.6993C455.874 42.2138 457.294 45.6231 457.298 49.1791V275.275C457.294 278.831 455.874 282.24 453.349 284.755C450.824 287.269 447.4 288.683 443.829 288.687H13.4686C9.89761 288.683 6.47403 287.269 3.94901 284.755C1.42395 282.24 0.00366211 278.831 -0.000244141 275.275V49.1791C0.00366211 45.6231 1.42395 42.2138 3.94901 39.6993C6.47403 37.1848 9.89761 35.7705 13.4686 35.7666ZM1.2825 275.275C1.28543 278.492 2.57025 281.577 4.85495 283.852C7.13965 286.128 10.2375 287.407 13.4686 287.41H443.829C447.06 287.407 450.158 286.128 452.443 283.852C454.727 281.577 456.012 278.492 456.015 275.275V49.1791C456.012 45.9615 454.727 42.8766 452.443 40.6015C450.158 38.3263 447.06 37.0469 443.829 37.044H13.4686C10.2375 37.0469 7.13965 38.3263 4.85495 40.6015C2.57025 42.8766 1.28543 45.9615 1.2825 49.1791V275.275Z" fill="#3F3D56"/>
<path d="M34.6339 72.4079H422.664C422.834 72.4079 422.997 72.3406 423.117 72.2208C423.238 72.101 423.305 71.9386 423.305 71.7692C423.305 71.5998 423.238 71.4373 423.117 71.3176C422.997 71.1978 422.834 71.1305 422.664 71.1305H34.6339C34.4638 71.1305 34.3007 71.1978 34.1804 71.3176C34.0601 71.4373 33.9925 71.5998 33.9925 71.7692C33.9925 71.9386 34.0601 72.101 34.1804 72.2208C34.3007 72.3406 34.4638 72.4079 34.6339 72.4079Z" fill="#3F3D56"/>
<path d="M312.989 261.224C313.16 261.224 313.323 261.156 313.443 261.037C313.563 260.917 313.631 260.754 313.631 260.585V50.4564C313.631 50.287 313.563 50.1246 313.443 50.0048C313.323 49.885 313.16 49.8177 312.989 49.8177C312.819 49.8177 312.656 49.885 312.536 50.0048C312.416 50.1246 312.348 50.287 312.348 50.4564V260.585C312.348 260.754 312.416 260.917 312.536 261.037C312.656 261.156 312.819 261.224 312.989 261.224Z" fill="#3F3D56"/>
<path d="M216.142 261.224C216.312 261.224 216.476 261.156 216.596 261.037C216.716 260.917 216.784 260.754 216.784 260.585V50.4564C216.784 50.287 216.716 50.1246 216.596 50.0048C216.476 49.885 216.312 49.8177 216.142 49.8177C215.972 49.8177 215.809 49.885 215.689 50.0048C215.569 50.1246 215.501 50.287 215.501 50.4564V260.585C215.501 260.754 215.569 260.917 215.689 261.037C215.809 261.156 215.972 261.224 216.142 261.224Z" fill="#3F3D56"/>
<path d="M119.295 261.224C119.465 261.224 119.628 261.156 119.749 261.037C119.869 260.917 119.937 260.754 119.937 260.585V50.4564C119.937 50.287 119.869 50.1246 119.749 50.0048C119.628 49.885 119.465 49.8177 119.295 49.8177C119.125 49.8177 118.962 49.885 118.842 50.0048C118.721 50.1246 118.654 50.287 118.654 50.4564V260.585C118.654 260.754 118.721 260.917 118.842 261.037C118.962 261.156 119.125 261.224 119.295 261.224Z" fill="#3F3D56"/>
<path d="M375.257 138.332H398.692C399.458 138.331 400.191 138.028 400.732 137.489C401.273 136.95 401.578 136.22 401.579 135.458V107.918C401.578 107.156 401.273 106.425 400.732 105.886C400.191 105.348 399.458 105.045 398.692 105.044H375.257C374.492 105.045 373.758 105.348 373.217 105.886C372.676 106.425 372.371 107.156 372.371 107.918V135.458C372.371 136.22 372.676 136.95 373.217 137.489C373.758 138.028 374.492 138.331 375.257 138.332Z" fill="#0C74F3"/>
<path d="M341.905 216.891H365.341C366.106 216.89 366.84 216.587 367.381 216.048C367.922 215.509 368.226 214.779 368.227 214.017V186.477C368.226 185.715 367.922 184.984 367.381 184.445C366.84 183.906 366.106 183.603 365.341 183.603H341.905C341.14 183.603 340.406 183.906 339.865 184.445C339.324 184.984 339.02 185.715 339.019 186.477V214.017C339.02 214.779 339.324 215.509 339.865 216.048C340.406 216.587 341.14 216.89 341.905 216.891Z" fill="#0C74F3"/>
<path d="M168.094 124.92H191.529C192.295 124.919 193.028 124.616 193.569 124.077C194.11 123.538 194.415 122.807 194.416 122.045V94.5054C194.415 93.7435 194.11 93.0129 193.569 92.4741C193.028 91.9353 192.295 91.6322 191.529 91.6313H168.094C167.328 91.6322 166.595 91.9353 166.054 92.4741C165.513 93.0129 165.208 93.7435 165.207 94.5054V122.045C165.208 122.807 165.513 123.538 166.054 124.077C166.595 124.616 167.328 124.919 168.094 124.92Z" fill="#0C74F3"/>
<path d="M77.66 124.92H101.096C101.861 124.919 102.595 124.616 103.136 124.077C103.677 123.538 103.981 122.807 103.982 122.045V94.5054C103.981 93.7435 103.677 93.0129 103.136 92.4741C102.595 91.9353 101.861 91.6322 101.096 91.6313H77.66C76.8949 91.6322 76.1613 91.9353 75.6202 92.4741C75.0791 93.0129 74.7747 93.7435 74.7739 94.5054V122.045C74.7747 122.807 75.0791 123.538 75.6202 124.077C76.1613 124.616 76.8949 124.919 77.66 124.92Z" fill="#0C74F3"/>
<path d="M35.9711 132.584H59.4068C60.172 132.583 60.9056 132.28 61.4467 131.741C61.9878 131.202 62.2921 130.472 62.293 129.71V102.17C62.2921 101.408 61.9878 100.677 61.4467 100.138C60.9056 99.5996 60.172 99.2965 59.4068 99.2957H35.9711C35.2059 99.2965 34.4723 99.5996 33.9312 100.138C33.3901 100.677 33.0858 101.408 33.0849 102.17V129.71C33.0858 130.472 33.3901 131.202 33.9312 131.741C34.4723 132.28 35.2059 132.583 35.9711 132.584Z" fill="#E6E6E6"/>
<path d="M54.5707 181.763H78.0064C78.7716 181.762 79.5052 181.459 80.0463 180.92C80.5874 180.381 80.8917 179.651 80.8926 178.889V151.349C80.8917 150.587 80.5874 149.856 80.0463 149.317C79.5052 148.779 78.7716 148.475 78.0064 148.475H54.5707C53.8055 148.475 53.0719 148.779 52.5308 149.317C51.9897 149.856 51.6854 150.587 51.6845 151.349V178.889C51.6854 179.651 51.9897 180.381 52.5308 180.92C53.0719 181.459 53.8055 181.762 54.5707 181.763Z" fill="#E6E6E6"/>
<path d="M134.101 171.544H157.537C158.302 171.543 159.036 171.24 159.577 170.701C160.118 170.162 160.422 169.432 160.423 168.67V141.13C160.422 140.368 160.118 139.637 159.577 139.098C159.036 138.56 158.302 138.256 157.537 138.256H134.101C133.336 138.256 132.602 138.56 132.061 139.098C131.52 139.637 131.216 140.368 131.215 141.13V168.67C131.216 169.432 131.52 170.162 132.061 170.701C132.602 171.24 133.336 171.543 134.101 171.544Z" fill="#052E61"/>
<path d="M179.638 181.763H203.074C203.839 181.762 204.573 181.459 205.114 180.92C205.655 180.381 205.959 179.651 205.96 178.889V151.349C205.959 150.587 205.655 149.856 205.114 149.317C204.573 148.779 203.839 148.475 203.074 148.475H179.638C178.873 148.475 178.139 148.779 177.598 149.317C177.057 149.856 176.753 150.587 176.752 151.349V178.889C176.753 179.651 177.057 180.381 177.598 180.92C178.139 181.459 178.873 181.762 179.638 181.763Z" fill="#E6E6E6"/>
<path d="M277.768 225.193H301.204C301.969 225.193 302.703 224.89 303.244 224.351C303.785 223.812 304.089 223.081 304.09 222.319V194.779C304.089 194.017 303.785 193.287 303.244 192.748C302.703 192.209 301.969 191.906 301.204 191.905H277.768C277.003 191.906 276.269 192.209 275.728 192.748C275.187 193.287 274.883 194.017 274.882 194.779V222.319C274.883 223.081 275.187 223.812 275.728 224.351C276.269 224.89 277.003 225.193 277.768 225.193Z" fill="#E6E6E6"/>
<path d="M396.422 188.788H419.857C420.623 188.788 421.356 188.485 421.897 187.946C422.438 187.407 422.743 186.676 422.744 185.914V158.374C422.743 157.612 422.438 156.882 421.897 156.343C421.356 155.804 420.623 155.501 419.857 155.5H396.422C395.657 155.501 394.923 155.804 394.382 156.343C393.841 156.882 393.536 157.612 393.536 158.374V185.914C393.536 186.676 393.841 187.407 394.382 187.946C394.923 188.485 395.657 188.788 396.422 188.788Z" fill="#052E61"/>
<path d="M330.361 138.332H353.796C354.562 138.331 355.295 138.028 355.836 137.489C356.377 136.95 356.682 136.22 356.683 135.458V107.918C356.682 107.156 356.377 106.425 355.836 105.886C355.295 105.348 354.562 105.045 353.796 105.044H330.361C329.596 105.045 328.862 105.348 328.321 105.886C327.78 106.425 327.475 107.156 327.475 107.918V135.458C327.475 136.22 327.78 136.95 328.321 137.489C328.862 138.028 329.596 138.331 330.361 138.332Z" fill="#E6E6E6"/>
<path d="M349.548 61.9528H386.106C386.786 61.9528 387.439 61.6836 387.92 61.2045C388.401 60.7254 388.671 60.0756 388.671 59.398C388.671 58.7205 388.401 58.0706 387.92 57.5915C387.439 57.1124 386.786 56.8433 386.106 56.8433H349.548C348.867 56.8433 348.215 57.1124 347.734 57.5915C347.253 58.0706 346.982 58.7205 346.982 59.398C346.982 60.0756 347.253 60.7254 347.734 61.2045C348.215 61.6836 348.867 61.9528 349.548 61.9528Z" fill="#CCCCCC"/>
<path d="M246.287 61.9528H282.845C283.526 61.9528 284.178 61.6836 284.659 61.2045C285.14 60.7254 285.411 60.0756 285.411 59.398C285.411 58.7205 285.14 58.0706 284.659 57.5915C284.178 57.1124 283.526 56.8433 282.845 56.8433H246.287C245.607 56.8433 244.954 57.1124 244.473 57.5915C243.992 58.0706 243.721 58.7205 243.721 59.398C243.721 60.0756 243.992 60.7254 244.473 61.2045C244.954 61.6836 245.607 61.9528 246.287 61.9528Z" fill="#CCCCCC"/>
<path d="M149.44 61.9528H185.998C186.678 61.9528 187.331 61.6836 187.812 61.2045C188.293 60.7254 188.563 60.0756 188.563 59.398C188.563 58.7205 188.293 58.0706 187.812 57.5915C187.331 57.1124 186.678 56.8433 185.998 56.8433H149.44C148.759 56.8433 148.107 57.1124 147.626 57.5915C147.145 58.0706 146.874 58.7205 146.874 59.398C146.874 60.0756 147.145 60.7254 147.626 61.2045C148.107 61.6836 148.759 61.9528 149.44 61.9528Z" fill="#CCCCCC"/>
<path d="M59.0062 61.9528H95.5644C96.2448 61.9528 96.8973 61.6836 97.3785 61.2045C97.8596 60.7254 98.1299 60.0756 98.1299 59.398C98.1299 58.7205 97.8596 58.0706 97.3785 57.5915C96.8973 57.1124 96.2448 56.8433 95.5644 56.8433H59.0062C58.3258 56.8433 57.6733 57.1124 57.1921 57.5915C56.711 58.0706 56.4407 58.7205 56.4407 59.398C56.4407 60.0756 56.711 60.7254 57.1921 61.2045C57.6733 61.6836 58.3258 61.9528 59.0062 61.9528Z" fill="#CCCCCC"/>
<path d="M431.43 249.019C432.368 248.928 433.275 248.632 434.086 248.154C434.898 247.676 435.594 247.026 436.126 246.251C436.658 245.476 437.013 244.594 437.165 243.667C437.318 242.741 437.265 241.792 437.01 240.888L453.45 225.649L444.757 223.453L428.591 236.51C427.095 237.038 425.845 238.094 425.078 239.478C424.311 240.862 424.081 242.478 424.431 244.02C424.781 245.562 425.686 246.922 426.976 247.844C428.266 248.765 429.851 249.183 431.43 249.019Z" fill="#7B4A00"/>
<path d="M408.729 361.659H400.865L397.125 331.457H408.73L408.729 361.659Z" fill="#7B4A00"/>
<path d="M385.701 368.929L410.413 368.93L410.414 359.422L395.249 359.422C392.717 359.421 390.288 360.423 388.498 362.206C386.707 363.989 385.701 366.408 385.701 368.929L385.701 368.929Z" fill="#2F2E41"/>
<path d="M462.642 356.006L455.043 358.02L443.626 329.793L454.84 326.82L462.642 356.006Z" fill="#7B4A00"/>
<path d="M442.267 368.932L466.148 362.602L463.692 353.414L449.037 357.298C446.59 357.946 444.502 359.537 443.232 361.718C441.963 363.9 441.615 366.495 442.267 368.932Z" fill="#2F2E41"/>
<path d="M398.751 355.941H410.749C411.507 355.944 412.239 355.664 412.799 355.156C413.36 354.649 413.71 353.951 413.78 353.199L421.064 277.878C421.117 277.325 421.362 276.808 421.756 276.416C422.15 276.023 422.668 275.779 423.223 275.725C423.778 275.671 424.334 275.81 424.797 276.12C425.26 276.429 425.6 276.889 425.76 277.421L446.908 347.804C447.131 348.552 447.637 349.185 448.318 349.572C448.999 349.958 449.803 350.067 450.564 349.877L461.725 347.098C462.115 347.001 462.482 346.828 462.804 346.59C463.126 346.351 463.398 346.052 463.603 345.708C463.809 345.365 463.944 344.984 464.001 344.588C464.058 344.192 464.036 343.789 463.936 343.402C463.754 342.693 445.715 272.489 445.557 271.768C441.47 241.77 436.58 233.731 433.953 229.413C433.735 229.056 433.535 228.727 433.356 228.417C433.13 228.028 431.744 224.173 430.865 221.669C430.751 221.262 430.553 220.883 430.284 220.556C430.015 220.228 429.681 219.96 429.303 219.768C418.265 214.146 405.349 218.037 401.654 219.364C401.041 219.579 400.515 219.986 400.154 220.524C389.069 237.175 394.509 333.885 395.712 353.103C395.762 353.872 396.104 354.593 396.668 355.12C397.233 355.647 397.977 355.941 398.751 355.941Z" fill="#2F2E41"/>
<path d="M429.714 165.155C421.014 165.155 413.961 158.132 413.961 149.469C413.961 140.805 421.014 133.782 429.714 133.782C438.414 133.782 445.467 140.805 445.467 149.469C445.467 158.132 438.414 165.155 429.714 165.155Z" fill="#7B4A00"/>
<path d="M431.383 224.715L431.496 224.606C431.709 224.401 452.697 203.925 449.981 184.991C448.819 176.893 442.24 171.719 430.953 170.026C426.807 169.413 422.577 170.311 419.042 172.555C415.507 174.798 412.905 178.237 411.712 182.239L400.552 220.231L431.383 224.715Z" fill="#CCCCCC"/>
<path d="M442.125 239.279L457.081 224.48C458.104 223.462 458.846 222.2 459.237 220.813C459.628 219.427 459.654 217.965 459.313 216.565L452.073 187.238C451.856 186.359 451.46 185.534 450.91 184.813C450.36 184.093 449.667 183.493 448.875 183.049C448.083 182.606 447.207 182.33 446.303 182.237C445.399 182.145 444.486 182.238 443.62 182.511C441.968 183.041 440.589 184.19 439.774 185.716C438.958 187.241 438.771 189.022 439.252 190.682L446.875 216.483L434.549 229.664L442.125 239.279Z" fill="#CCCCCC"/>
<path d="M361.908 188.772C362.304 189.625 362.882 190.38 363.603 190.986C364.323 191.592 365.168 192.033 366.078 192.278C366.988 192.524 367.941 192.567 368.87 192.406C369.799 192.245 370.681 191.883 371.454 191.346L391.42 201.65L390.537 192.897L372.838 181.989C371.845 180.755 370.432 179.927 368.868 179.661C367.303 179.395 365.694 179.71 364.347 180.546C363 181.383 362.008 182.682 361.558 184.198C361.109 185.714 361.233 187.342 361.908 188.772H361.908Z" fill="#7B4A00"/>
<path d="M373.635 195.288L393.098 203.664C394.393 204.217 395.81 204.429 397.211 204.279C398.613 204.129 399.952 203.623 401.1 202.809L425.85 185.15C426.589 184.623 427.211 183.95 427.678 183.174C428.145 182.398 428.448 181.535 428.566 180.637C428.685 179.74 428.617 178.828 428.368 177.958C428.118 177.088 427.692 176.278 427.116 175.579C426.008 174.249 424.424 173.4 422.699 173.213C420.974 173.026 419.244 173.516 417.874 174.577L396.652 191.21L379.784 184.711L373.635 195.288Z" fill="#CCCCCC"/>
<path d="M427.103 154.495C425.159 152.07 421.529 151.94 418.859 150.341C415.363 148.246 413.917 143.564 415.044 139.658C416.171 135.752 419.494 132.708 423.304 131.253C427.114 129.797 431.352 129.779 435.372 130.483C441.356 131.53 447.247 134.312 450.897 139.149C454.547 143.986 455.475 151.071 452.168 156.146C450.648 158.479 448.301 160.404 447.694 163.119C446.897 166.682 449.407 170.119 452.096 172.601C455.16 175.428 458.675 177.795 461.359 180.982C464.043 184.169 465.833 188.523 464.608 192.499C463.582 195.831 460.596 198.285 457.321 199.514C454.047 200.744 450.48 200.921 446.982 200.989C443.584 201.056 439.976 200.973 437.114 199.149C434.05 197.196 432.414 193.491 432.293 189.871C432.172 186.25 433.387 182.703 435.015 179.464C435.986 177.533 437.114 175.662 437.759 173.6C438.404 171.539 438.516 169.2 437.483 167.301C436.397 165.305 434.201 164.102 431.964 163.664C431.848 163.642 431.725 163.621 431.597 163.603C430.96 163.521 430.347 163.311 429.795 162.986C429.242 162.661 428.762 162.228 428.382 161.713C428.002 161.198 427.731 160.612 427.586 159.99C427.44 159.367 427.423 158.722 427.535 158.093C427.79 156.679 427.768 155.325 427.103 154.495Z" fill="#2F2E41"/>
<path d="M266.224 154.938H289.659C290.424 154.937 291.158 154.634 291.699 154.095C292.24 153.556 292.545 152.826 292.545 152.064V124.524C292.545 123.762 292.24 123.031 291.699 122.492C291.158 121.954 290.424 121.651 289.659 121.65H266.224C265.458 121.651 264.725 121.954 264.184 122.492C263.643 123.031 263.338 123.762 263.337 124.524V152.064C263.338 152.826 263.643 153.556 264.184 154.095C264.725 154.634 265.458 154.937 266.224 154.938Z" fill="#0C74F3"/>
<path d="M217.071 362.328H224.934L228.674 332.126L217.069 332.126L217.071 362.328Z" fill="#EBABB4"/>
<path d="M230.55 360.091H215.386V369.599H240.098C240.098 368.35 239.851 367.114 239.371 365.96C238.892 364.807 238.188 363.758 237.302 362.875C236.415 361.993 235.362 361.292 234.204 360.814C233.046 360.337 231.804 360.091 230.55 360.091Z" fill="#2F2E41"/>
<path d="M160.017 353.459L167.169 356.711L183.174 330.788L172.617 325.986L160.017 353.459Z" fill="#EBABB4"/>
<path d="M173.212 357L159.418 350.726L155.451 359.375L177.93 369.599C178.451 368.464 178.742 367.237 178.787 365.989C178.831 364.741 178.629 363.497 178.191 362.327C177.753 361.157 177.088 360.084 176.233 359.17C175.379 358.257 174.352 357.519 173.212 357Z" fill="#2F2E41"/>
<path d="M182.916 260.494C182.163 259.929 181.543 259.207 181.1 258.378C180.657 257.549 180.402 256.633 180.353 255.696C180.304 254.758 180.462 253.821 180.816 252.951C181.17 252.08 181.712 251.298 182.402 250.659L173.159 229.774L184.902 231.755L191.879 251.284C192.881 252.511 193.396 254.06 193.327 255.64C193.258 257.219 192.61 258.718 191.505 259.853C190.4 260.988 188.916 261.681 187.333 261.799C185.75 261.917 184.178 261.452 182.916 260.494Z" fill="#EBABB4"/>
<path d="M217.572 354.365H225.083C225.812 354.362 226.513 354.086 227.046 353.592C227.58 353.098 227.907 352.422 227.962 351.699L232.058 242.765C232.089 242.347 232.027 241.928 231.878 241.537C231.729 241.146 231.496 240.792 231.195 240.499C230.894 240.207 230.533 239.984 230.136 239.845C229.74 239.706 229.318 239.656 228.899 239.696L185.456 244.291C184.752 244.359 184.098 244.683 183.617 245.2C183.137 245.717 182.864 246.392 182.851 247.097L181.94 295.149C181.935 295.409 181.885 295.667 181.79 295.911L163.97 341.93C163.832 342.286 163.767 342.665 163.778 343.046C163.788 343.427 163.875 343.802 164.033 344.149C164.191 344.496 164.416 344.808 164.696 345.068C164.977 345.327 165.306 345.529 165.665 345.661L173.277 348.454C173.938 348.696 174.665 348.689 175.322 348.435C175.979 348.18 176.519 347.695 176.841 347.071L198.733 304.682C198.852 304.452 198.939 304.206 198.992 303.952L202.732 286.009C202.84 285.489 203.131 285.024 203.553 284.698C203.974 284.372 204.498 284.206 205.031 284.23C205.564 284.254 206.071 284.467 206.462 284.829C206.852 285.192 207.099 285.681 207.16 286.209L214.704 351.817C214.784 352.518 215.121 353.166 215.65 353.635C216.179 354.105 216.863 354.365 217.572 354.365Z" fill="#2F2E41"/>
<path d="M213.831 157.589C205.131 157.589 198.078 150.566 198.078 141.902C198.078 133.239 205.131 126.216 213.831 126.216C222.531 126.216 229.584 133.239 229.584 141.902C229.584 150.566 222.531 157.589 213.831 157.589Z" fill="#EBABB4"/>
<path d="M203.028 252.725C213.711 252.608 224.139 249.463 233.091 243.657L233.245 243.552L233.229 243.367L227.203 173.484C226.995 171.113 225.933 168.897 224.211 167.246C222.49 165.595 220.227 164.621 217.84 164.503C210.03 164.146 199.541 164.596 193.926 168.761C185.44 175.055 181.35 184.533 182.705 194.764C185.514 215.98 182.331 244.6 181.959 247.793L181.932 248.024L182.144 248.12C188.686 251.151 195.813 252.723 203.028 252.725Z" fill="#0C74F3"/>
<path d="M182.032 247.912C182.476 247.911 182.915 247.819 183.321 247.64C183.727 247.462 184.092 247.202 184.392 246.876L187.838 243.132C188.21 242.726 188.471 242.23 188.596 241.694C188.721 241.158 188.705 240.598 188.549 240.07L180.692 213.587L192.647 188.587C193.206 187.417 193.342 186.091 193.035 184.832C192.763 183.727 192.162 182.73 191.31 181.972C190.458 181.214 189.395 180.731 188.262 180.587C187.129 180.443 185.979 180.644 184.963 181.164C183.947 181.685 183.113 182.499 182.572 183.501L166.348 209.714C165.689 210.777 165.303 211.986 165.222 213.233C165.142 214.48 165.37 215.727 165.887 216.866L179.105 246.032C179.323 246.514 179.658 246.934 180.079 247.256C180.501 247.577 180.996 247.788 181.521 247.871C181.69 247.898 181.861 247.912 182.032 247.912Z" fill="#0C74F3"/>
<path d="M293.068 197.325C292.311 197.885 291.44 198.273 290.517 198.462C289.593 198.651 288.639 198.636 287.722 198.418C286.805 198.201 285.947 197.785 285.208 197.201C284.47 196.618 283.869 195.88 283.448 195.039L260.719 197.975L265.943 187.316L286.726 186.163C288.19 185.552 289.828 185.497 291.33 186.009C292.832 186.52 294.093 187.563 294.875 188.938C295.657 190.314 295.905 191.928 295.571 193.473C295.238 195.019 294.347 196.389 293.068 197.324V197.325Z" fill="#EBABB4"/>
<path d="M242.969 203.146C243.365 203.146 243.76 203.118 244.152 203.064L279.909 198.126C280.494 198.046 281.049 197.822 281.525 197.475C282.001 197.128 282.383 196.669 282.636 196.138C282.717 195.968 282.786 195.79 282.84 195.609H282.84C282.978 195.137 283.017 194.642 282.953 194.155C282.89 193.668 282.726 193.199 282.471 192.778L279.512 187.893C279.194 187.371 278.746 186.939 278.212 186.639C277.678 186.338 277.075 186.18 276.462 186.178H276.457L245.289 186.213L222.011 165.445C220.928 164.481 219.545 163.917 218.094 163.849C216.82 163.79 215.558 164.117 214.475 164.787C213.391 165.457 212.537 166.438 212.025 167.601C211.513 168.764 211.367 170.054 211.606 171.302C211.845 172.549 212.459 173.695 213.365 174.588L236.593 200.314C237.396 201.205 238.38 201.918 239.478 202.405C240.577 202.893 241.766 203.146 242.969 203.146Z" fill="#0C74F3"/>
<path d="M212.04 155.858C210.601 152.54 209.383 148.122 212.144 145.776C213.745 144.416 216.052 144.413 218.151 144.243C224.062 143.767 230.148 141.058 233.037 135.9C235.927 130.742 234.313 123.072 228.862 120.745C225.187 119.177 220.975 120.245 217.128 121.331L205.58 124.592C202.148 125.561 198.546 126.63 196.075 129.192C192.136 133.278 192.43 140.185 195.559 144.915C198.689 149.645 203.401 154.579 208.796 156.375L212.04 155.858Z" fill="#2F2E41"/>
<path d="M52.7155 369.807H526.237C526.337 369.807 526.437 369.788 526.529 369.75C526.622 369.712 526.707 369.656 526.778 369.585C526.849 369.514 526.906 369.43 526.944 369.338C526.983 369.246 527.002 369.146 527.002 369.046C527.002 368.946 526.983 368.847 526.944 368.755C526.906 368.662 526.849 368.579 526.778 368.508C526.707 368.437 526.622 368.381 526.529 368.343C526.437 368.305 526.337 368.286 526.237 368.286H52.7155C52.6151 368.286 52.5156 368.305 52.4227 368.343C52.3297 368.381 52.2453 368.437 52.1742 368.508C52.103 368.579 52.0465 368.662 52.008 368.755C51.9695 368.847 51.9497 368.946 51.9497 369.046C51.9497 369.146 51.9695 369.246 52.008 369.338C52.0465 369.43 52.103 369.514 52.1742 369.585C52.2453 369.656 52.3297 369.712 52.4227 369.75C52.5156 369.788 52.6151 369.807 52.7155 369.807Z" fill="#3F3D56"/>
</g>
<defs>
<clipPath id="clip0_42_818">
<rect width="527" height="369.807" fill="white" transform="matrix(-1 0 0 1 527 0)"/>
</clipPath>
</defs>
</svg>
