<svg width="527" height="421" viewBox="0 0 527 421" fill="none" xmlns="http://www.w3.org/2000/svg">
<g clip-path="url(#clip0_42_654)">
<path d="M299.842 238.11C300.803 238.004 301.729 237.691 302.555 237.191C303.381 236.692 304.086 236.018 304.622 235.219C305.158 234.419 305.511 233.512 305.656 232.562C305.801 231.612 305.735 230.642 305.463 229.721L324.588 216.145L313.19 211.783L296.776 225.344C295.248 225.902 293.979 226.998 293.21 228.424C292.44 229.85 292.224 231.507 292.602 233.08C292.98 234.654 293.926 236.036 295.261 236.962C296.595 237.889 298.225 238.298 299.843 238.11H299.842Z" fill="#FFB7B7"/>
<path d="M310.463 229.168L304.118 218.397L304.252 218.244L329.851 189.282L349.727 155.598L366.987 157.784L367.242 162.968L367.19 163.046L339.769 204.009L339.74 204.034L310.463 229.168Z" fill="#3F3D56"/>
<path d="M395.038 411.395H385.279L380.634 373.982H395.04L395.038 411.395Z" fill="#FFB7B7"/>
<path d="M397.528 420.798H366.056V420.402C366.057 417.175 367.347 414.08 369.644 411.797C371.94 409.515 375.054 408.233 378.302 408.232H397.526L397.528 420.798Z" fill="#2F2E41"/>
<path d="M311.035 411.078L301.542 408.826L305.768 371.363L319.78 374.688L311.035 411.078Z" fill="#FFB7B7"/>
<path d="M311.259 420.798L280.647 413.533L280.74 413.149C281.494 410.009 283.473 407.295 286.241 405.604C289.009 403.914 292.339 403.386 295.499 404.135L314.196 408.572L311.259 420.798Z" fill="#2F2E41"/>
<path d="M348.969 138.495V122.168C348.969 116.365 351.289 110.8 355.418 106.697C359.546 102.594 365.146 100.289 370.985 100.289C376.824 100.289 382.424 102.594 386.552 106.697C390.681 110.8 393.001 116.365 393.001 122.168V138.495C392.999 139.274 392.688 140.021 392.133 140.571C391.579 141.122 390.828 141.432 390.045 141.433H351.927C351.143 141.432 350.391 141.122 349.837 140.572C349.283 140.021 348.971 139.274 348.969 138.495Z" fill="#2F2E41"/>
<path d="M365.551 141.187C374.466 141.187 381.693 134.005 381.693 125.146C381.693 116.287 374.466 109.105 365.551 109.105C356.637 109.105 349.41 116.287 349.41 125.146C349.41 134.005 356.637 141.187 365.551 141.187Z" fill="#FFB7B7"/>
<path d="M343.761 123.474C343.766 118.885 345.602 114.486 348.867 111.242C352.132 107.997 356.559 106.172 361.176 106.167H364.462C369.079 106.172 373.506 107.997 376.771 111.242C380.036 114.486 381.872 118.885 381.877 123.474V123.8H374.933L372.564 117.21L372.091 123.8H368.501L367.305 120.475L367.066 123.8H343.761V123.474Z" fill="#2F2E41"/>
<path d="M374.964 209.806L333.866 208.252L331.569 181.534C329.798 176.643 329.769 172.441 331.484 169.053C332.959 166.268 335.438 164.139 338.424 163.092L347.417 152.298C348.574 150.911 350.026 149.796 351.67 149.035C353.313 148.274 355.106 147.884 356.919 147.896L380.285 148.055C380.848 147.718 384.265 145.993 391.002 148.894C398.31 152.041 396.613 162.976 396.595 163.086L396.578 163.189L396.498 163.259L380.956 176.268L374.964 209.806Z" fill="#3F3D56"/>
<path d="M334.197 205.381L314.757 240.603L300.019 400.844L316.671 405.898L346.147 280.546L380.352 402.341L400.317 402.836L386.725 262.284L374.848 207.868L334.197 205.381Z" fill="#2F2E41"/>
<path d="M339.939 215.954C339.527 215.615 339.086 216.189 338.954 217.236L334.91 248.99C334.777 250.039 335.003 251.158 335.414 251.502L385.7 293.001C386.112 293.338 386.553 292.766 386.685 291.718L390.729 259.964C390.862 258.915 390.636 257.796 390.225 257.453L339.939 215.954Z" fill="#0C74F3"/>
<path d="M386.133 262.402C386.852 261.76 387.421 260.97 387.799 260.086C388.177 259.202 388.356 258.246 388.323 257.286C388.29 256.326 388.045 255.384 387.607 254.528C387.168 253.672 386.546 252.922 385.784 252.331L393.373 230.225L381.549 233.277L376.161 253.8C375.245 255.138 374.856 256.764 375.066 258.369C375.276 259.973 376.071 261.446 377.301 262.506C378.531 263.567 380.11 264.142 381.738 264.123C383.366 264.104 384.931 263.492 386.135 262.403L386.133 262.402Z" fill="#FFB7B7"/>
<path d="M389.523 248.987L378.051 243.907L381.905 205.345L378.315 166.46L393.633 158.245L396.878 162.312V162.404L398.597 211.574L398.588 211.612L389.523 248.987Z" fill="#3F3D56"/>
<path d="M119.626 149.136C134.503 149.136 146.563 137.151 146.563 122.366C146.563 107.582 134.503 95.597 119.626 95.597C104.749 95.597 92.689 107.582 92.689 122.366C92.689 137.151 104.749 149.136 119.626 149.136Z" fill="#0C74F3"/>
<path d="M125.199 141.836C119.733 141.836 114.388 140.225 109.843 137.207C105.297 134.188 101.754 129.898 99.6622 124.879C97.5701 119.86 97.0227 114.337 98.0892 109.008C99.1557 103.68 101.788 98.7852 105.654 94.9436C109.52 91.1019 114.445 88.4857 119.807 87.4258C125.168 86.3659 130.726 86.9098 135.777 88.9888C140.828 91.0679 145.145 94.5886 148.182 99.1059C151.219 103.623 152.84 108.934 152.84 114.367C152.832 121.65 149.917 128.632 144.735 133.781C139.554 138.931 132.528 141.828 125.199 141.836ZM125.199 88.2968C120.011 88.2968 114.939 89.8258 110.625 92.6904C106.311 95.555 102.948 99.6266 100.963 104.39C98.9771 109.154 98.4576 114.396 99.4698 119.453C100.482 124.51 102.981 129.155 106.649 132.801C110.318 136.447 114.993 138.93 120.081 139.936C125.17 140.942 130.445 140.426 135.238 138.453C140.032 136.479 144.129 133.138 147.012 128.851C149.894 124.563 151.433 119.523 151.433 114.367C151.425 107.455 148.658 100.829 143.74 95.9412C138.822 91.0539 132.154 88.3047 125.199 88.2968Z" fill="#3F3D56"/>
<path d="M109.59 109.408C109.309 109.587 108.992 109.705 108.661 109.754C108.33 109.803 107.993 109.782 107.671 109.693L86.2208 104.358C84.4221 106.832 82.0071 108.799 79.2126 110.065C76.4181 111.332 73.3403 111.854 70.2812 111.582C67.4101 111.323 64.6463 110.369 62.2311 108.804C59.8159 107.24 57.8225 105.112 56.4248 102.606C55.027 100.1 54.2674 97.2924 54.2122 94.4279C54.157 91.5633 54.8078 88.7288 56.1079 86.1716C57.4081 83.6143 59.318 81.412 61.6711 79.7567C64.0243 78.1014 66.7493 77.0433 69.6083 76.6748C72.4674 76.3062 75.3738 76.6384 78.0741 77.6423C80.7743 78.6462 83.1864 80.2914 85.1 82.4343C86.6714 84.2002 87.8707 86.2612 88.6268 88.4955C89.383 90.7298 89.6808 93.0921 89.5026 95.4427L109.354 105.12C109.909 105.376 110.346 105.833 110.574 106.397C110.802 106.962 110.805 107.592 110.582 108.159C110.394 108.67 110.047 109.107 109.59 109.408Z" fill="#3F3D56"/>
<path d="M71.8691 102.078C76.3151 102.078 79.9193 98.4963 79.9193 94.0779C79.9193 89.6596 76.3151 86.0778 71.8691 86.0778C67.4231 86.0778 63.8188 89.6596 63.8188 94.0779C63.8188 98.4963 67.4231 102.078 71.8691 102.078Z" fill="#0C74F3"/>
<path d="M137.202 57.9044C136.714 58.2133 136.135 58.348 135.56 58.2864C134.95 58.2352 134.382 57.9547 133.973 57.502C133.563 57.0493 133.343 56.4585 133.357 55.8501L133.377 33.8755C130.83 32.8647 128.555 31.2789 126.732 29.2435C124.909 27.208 123.587 24.7788 122.871 22.148C122.156 19.5172 122.066 16.757 122.61 14.0859C123.153 11.4148 124.315 8.90594 126.002 6.75794C128.828 3.16105 132.951 0.798313 137.499 0.170107C142.047 -0.4581 146.663 0.697552 150.368 3.39231C154.074 6.08708 156.579 10.1093 157.352 14.6073C158.125 19.1053 157.106 23.7258 154.511 27.4904C153.168 29.433 151.446 31.0881 149.447 32.3578C147.449 33.6275 145.214 34.486 142.876 34.8826L138.229 56.3665C138.17 56.6781 138.049 56.9749 137.873 57.239C137.697 57.5032 137.469 57.7295 137.202 57.9044Z" fill="#E6E6E6" fill-opacity="0.75"/>
<path d="M139.941 25.5507C144.387 25.5507 147.992 21.969 147.992 17.5506C147.992 13.1323 144.387 9.55048 139.941 9.55048C135.495 9.55048 131.891 13.1323 131.891 17.5506C131.891 21.969 135.495 25.5507 139.941 25.5507Z" fill="#CCCCCC"/>
<path d="M224.772 110.15C222.454 111.647 219.815 112.585 217.068 112.888C214.32 113.192 211.539 112.853 208.947 111.899C206.725 111.073 204.693 109.813 202.97 108.193C201.246 106.573 199.868 104.627 198.915 102.468L176.815 103.185C176.207 103.205 175.613 103 175.148 102.611C174.682 102.221 174.379 101.674 174.295 101.075C174.211 100.476 174.353 99.8679 174.694 99.367C175.035 98.8662 175.551 98.5083 176.141 98.3626L197.6 93.0658C197.97 90.3655 198.968 87.788 200.515 85.5372C202.061 83.2864 204.113 81.4241 206.509 80.0978C208.904 78.7714 211.578 78.0172 214.317 77.8951C217.057 77.7729 219.788 78.2861 222.293 79.394C225.197 80.6776 227.698 82.7154 229.534 85.2929C231.371 87.8704 232.474 90.8921 232.727 94.0401C232.981 97.1881 232.376 100.346 230.976 103.181C229.576 106.016 227.433 108.423 224.772 110.15L224.772 110.15Z" fill="#E6E6E6" fill-opacity="0.75"/>
<path d="M215.128 103.447C219.574 103.447 223.178 99.8649 223.178 95.4465C223.178 91.0282 219.574 87.4464 215.128 87.4464C210.682 87.4464 207.078 91.0282 207.078 95.4465C207.078 99.8649 210.682 103.447 215.128 103.447Z" fill="#CCCCCC"/>
<path d="M162.409 180.445C158.58 182.91 153.939 183.807 149.459 182.949C144.979 182.091 141.006 179.544 138.372 175.842C135.739 172.14 134.648 167.568 135.328 163.085C136.008 158.601 138.407 154.553 142.023 151.787L135.976 130.651L136.315 130.555L135.976 130.651C135.81 130.069 135.866 129.447 136.134 128.904C136.401 128.361 136.862 127.936 137.426 127.71C137.991 127.484 138.62 127.474 139.191 127.682C139.763 127.89 140.237 128.3 140.522 128.834L150.885 148.244C153.938 147.917 157.025 148.385 159.842 149.601C162.659 150.817 165.109 152.74 166.953 155.182C168.4 157.104 169.435 159.301 169.994 161.636C170.554 163.971 170.625 166.396 170.205 168.76C169.785 171.124 168.881 173.377 167.55 175.381C166.219 177.384 164.489 179.095 162.466 180.408L162.409 180.445Z" fill="#3F3D56"/>
<path d="M152.801 173.719C157.247 173.719 160.851 170.137 160.851 165.719C160.851 161.3 157.247 157.718 152.801 157.718C148.355 157.718 144.75 161.3 144.75 165.719C144.75 170.137 148.355 173.719 152.801 173.719Z" fill="#0C74F3"/>
<path d="M60.7967 193.778C58.0677 195.535 54.9038 196.511 51.653 196.597C48.4021 196.683 45.1904 195.876 42.371 194.266C39.5516 192.655 37.2339 190.303 35.6726 187.468C34.1114 184.633 33.3673 181.425 33.522 178.197C33.6767 174.969 34.7243 171.846 36.5496 169.171C38.375 166.497 40.9072 164.374 43.8679 163.037C46.8285 161.7 50.1028 161.201 53.3307 161.594C56.5586 161.986 59.6149 163.256 62.1635 165.264L81.3374 154.32C81.865 154.019 82.4861 153.923 83.081 154.05C83.6759 154.176 84.2025 154.517 84.5594 155.007C84.9163 155.497 85.0782 156.1 85.0139 156.702C84.9496 157.303 84.6637 157.859 84.2112 158.264L67.7659 172.953C69.1454 176.695 69.2074 180.792 67.9416 184.575C66.6758 188.357 64.1571 191.601 60.7968 193.778H60.7967Z" fill="#E6E6E6" fill-opacity="0.75"/>
<path d="M50.644 187.375C55.09 187.375 58.6943 183.794 58.6943 179.375C58.6943 174.957 55.09 171.375 50.644 171.375C46.198 171.375 42.5938 174.957 42.5938 179.375C42.5938 183.794 46.198 187.375 50.644 187.375Z" fill="#CCCCCC"/>
<path d="M0.877665 420.799H526.122C526.355 420.799 526.578 420.707 526.743 420.543C526.908 420.38 527 420.158 527 419.926C527 419.695 526.908 419.473 526.743 419.31C526.578 419.146 526.355 419.054 526.122 419.054H0.877665C0.644896 419.054 0.421662 419.146 0.257069 419.31C0.0924757 419.473 0 419.695 0 419.926C0 420.158 0.0924757 420.38 0.257069 420.543C0.421662 420.707 0.644896 420.799 0.877665 420.799Z" fill="#3F3D56"/>
<path d="M36.9729 395.623C38.8966 396.295 40.962 396.463 42.9701 396.112C44.9782 395.76 46.8614 394.901 48.4381 393.616C52.4541 390.266 53.7125 384.748 54.7372 379.638L57.7672 364.525L51.4237 368.865C46.8615 371.987 42.1966 375.209 39.0365 379.73C35.8764 384.252 34.499 390.424 37.037 395.317" fill="#E6E6E6"/>
<path d="M37.9519 414.972C37.1531 409.191 36.3332 403.336 36.8927 397.493C37.3903 392.304 38.983 387.236 42.2262 383.08C43.9477 380.878 46.0425 378.992 48.4163 377.506C49.0349 377.117 49.605 378.092 48.9885 378.478C44.8811 381.059 41.7044 384.868 39.9163 389.358C37.9414 394.351 37.624 399.793 37.9646 405.095C38.1701 408.303 38.6065 411.489 39.0464 414.671C39.081 414.815 39.0593 414.967 38.9858 415.096C38.9122 415.224 38.7922 415.32 38.6501 415.365C38.5051 415.403 38.3506 415.384 38.22 415.31C38.0895 415.236 37.9934 415.114 37.9526 414.971L37.9519 414.972Z" fill="#F2F2F2"/>
<path d="M43.6992 405.696C44.5242 406.942 45.6583 407.956 46.9921 408.64C48.3259 409.324 49.8145 409.655 51.3145 409.601C55.1693 409.419 58.3829 406.746 61.2763 404.207L69.8333 396.7L64.1704 396.43C60.0981 396.236 55.9203 396.056 52.0408 397.304C48.1614 398.552 44.5846 401.556 43.8766 405.546" fill="#E6E6E6"/>
<path d="M35.6956 418.295C39.5392 411.536 44.0007 404.027 51.9643 401.623C54.1797 400.959 56.5025 400.722 58.8076 400.924C59.5339 400.986 59.353 402.099 58.6274 402.037C54.7638 401.717 50.9072 402.73 47.707 404.905C44.699 407.073 42.149 409.808 40.2015 412.954C38.9585 414.834 37.8451 416.795 36.7317 418.753C36.3755 419.38 35.336 418.928 35.6956 418.295Z" fill="#F2F2F2"/>
<path d="M471.712 396.651C469.718 397.479 467.543 397.782 465.397 397.531C463.251 397.281 461.207 396.485 459.46 395.221C455.007 391.921 453.337 386.159 451.94 380.816L447.811 365.01L454.788 369.219C459.806 372.245 464.937 375.372 468.554 379.966C472.172 384.559 474.009 391.005 471.623 396.334" fill="#0C74F3"/>
<path d="M471.059 418.089C471.946 406.948 472.711 394.417 465.148 385.179C463.043 382.613 460.464 380.471 457.55 378.867C456.633 378.36 455.948 379.833 456.864 380.34C461.733 383.05 465.514 387.345 467.57 392.501C469.558 397.451 470.072 402.823 470.007 408.111C469.967 411.35 469.707 414.581 469.452 417.809C469.368 418.84 470.977 419.131 471.059 418.089Z" fill="#F2F2F2"/>
</g>
<defs>
<clipPath id="clip0_42_654">
<rect width="527" height="420.798" fill="white"/>
</clipPath>
</defs>
</svg>
